<svg viewBox="0 0 420 380" xmlns="http://www.w3.org/2000/svg" class="ilus-svg">
                        <!-- Documento base -->
                        <rect x="80" y="60" width="200" height="260" rx="12" fill="#1c1c1d" opacity=".06" />
                        <rect x="90" y="50" width="200" height="260" rx="12" fill="#ffffff" stroke="#e5e5e5"
                            stroke-width="1.5" />
                        <!-- Líneas de texto simuladas -->
                        <rect x="115" y="88" width="140" height="8" rx="4" fill="#d1d5db" />
                        <rect x="115" y="106" width="120" height="6" rx="3" fill="#e5e7eb" />
                        <rect x="115" y="120" width="150" height="6" rx="3" fill="#e5e7eb" />
                        <rect x="115" y="134" width="100" height="6" rx="3" fill="#e5e7eb" />
                        <!-- Separador -->
                        <rect x="115" y="155" width="150" height="1" fill="#f3f4f6" />
                        <rect x="115" y="168" width="145" height="6" rx="3" fill="#e5e7eb" />
                        <rect x="115" y="182" width="130" height="6" rx="3" fill="#e5e7eb" />
                        <rect x="115" y="196" width="155" height="6" rx="3" fill="#e5e7eb" />
                        <rect x="115" y="210" width="90" height="6" rx="3" fill="#e5e7eb" />
                        <!-- Highlight plagio -->
                        <rect x="113" y="224" width="162" height="16" rx="4" fill="#fde68a" opacity=".8" />
                        <rect x="115" y="228" width="140" height="6" rx="3" fill="#92400e" opacity=".6" />
                        <!-- Badge de resultado -->
                        <rect x="220" y="30" width="120" height="36" rx="18" fill="#1c1c1d" />
                        <text x="280" y="53" font-family="'DM Sans', sans-serif" font-size="13" fill="#fff"
                            text-anchor="middle" font-weight="500">23% plagio</text>
                        <!-- Línea conectora -->
                        <line x1="200" y1="50" x2="225" y2="48" stroke="#1c1c1d" stroke-width="1.5"
                            stroke-dasharray="4,3" opacity=".4" />
                        <!-- Ícono lupa flotante -->
                        <circle cx="320" cy="240" r="36" fill="#f0fdf4" stroke="#bbf7d0" stroke-width="1.5" />
                        <circle cx="314" cy="234" r="14" fill="none" stroke="#059669" stroke-width="2.5" />
                        <line x1="324" y1="244" x2="332" y2="252" stroke="#059669" stroke-width="2.5"
                            stroke-linecap="round" />
                        <!-- Puntos decorativos -->
                        <circle cx="60" cy="200" r="5" fill="#4f46e5" opacity=".4" />
                        <circle cx="52" cy="220" r="3" fill="#4f46e5" opacity=".25" />
                        <circle cx="68" cy="240" r="4" fill="#4f46e5" opacity=".3" />
                        <circle cx="360" cy="100" r="6" fill="#d97706" opacity=".35" />
                        <circle cx="375" cy="120" r="3.5" fill="#d97706" opacity=".2" />
                    </svg>